<svg xmlns="http://www.w3.org/2000/svg" width="128" height="128">
  <path fill="#fff" d="M109.54 93.9c1.38 1.38 1.38 3.65 0 5.03l-10.6 10.61c-1.38 1.38-3.65 1.38-5.03 0L64 79.64l-29.9 29.9c-1.38 1.38-3.65 1.38-5.03 0L18.46 98.93c-1.38-1.38-1.38-3.65 0-5.03L48.36 64l-29.9-29.9c-1.38-1.39-1.38-3.65 0-5.04l10.61-10.6c1.38-1.39 3.65-1.39 5.03 0L64 48.36l29.9-29.9c1.38-1.39 3.65-1.39 5.03 0l10.61 10.6c1.38 1.39 1.38 3.65 0 5.04L79.64 64l29.9 29.9z"/>
  <path fill="#ed6c30" d="M123.83.47H4.17C2.14.47.47 2.13.47 4.17v119.66c0 2.04 1.66 3.7 3.7 3.7h119.66c2.03 0 3.69-1.66 3.69-3.7V4.17c.01-2.04-1.65-3.7-3.69-3.7zM109.54 93.9c1.38 1.38 1.38 3.65 0 5.03l-10.6 10.61c-1.38 1.38-3.65 1.38-5.03 0L64 79.64l-29.9 29.9c-1.38 1.38-3.65 1.38-5.03 0L18.46 98.93c-1.38-1.38-1.38-3.65 0-5.03L48.36 64l-29.9-29.9c-1.38-1.39-1.38-3.65 0-5.04l10.61-10.6c1.38-1.39 3.65-1.39 5.03 0L64 48.36l29.9-29.9c1.38-1.39 3.65-1.39 5.03 0l10.61 10.6c1.38 1.39 1.38 3.65 0 5.04L79.64 64l29.9 29.9z"/>
</svg>